<svg xmlns="http://www.w3.org/2000/svg" width="23.281" height="23.281" viewBox="0 0 23.281 23.281"><defs><style>.a{fill:#fff;}</style></defs><path class="a" d="M211.456,209.228A2.228,2.228,0,1,1,209.228,207,2.228,2.228,0,0,1,211.456,209.228Zm0,0" transform="translate(-197.588 -197.588)"/><path class="a" d="M146.175,137.026a2.213,2.213,0,0,0-1.269-1.269,3.7,3.7,0,0,0-1.241-.23c-.7-.032-.916-.039-2.7-.039s-2,.007-2.7.039a3.7,3.7,0,0,0-1.241.23,2.215,2.215,0,0,0-1.269,1.269,3.7,3.7,0,0,0-.23,1.241c-.032.7-.039.916-.039,2.7s.007,2,.039,2.7a3.7,3.7,0,0,0,.23,1.241,2.214,2.214,0,0,0,1.269,1.269,3.694,3.694,0,0,0,1.241.23c.7.032.916.039,2.7.039s2-.007,2.7-.039a3.694,3.694,0,0,0,1.241-.23,2.214,2.214,0,0,0,1.269-1.269,3.7,3.7,0,0,0,.23-1.241c.032-.7.039-.916.039-2.7s-.007-2-.039-2.7A3.7,3.7,0,0,0,146.175,137.026Zm-5.211,7.374a3.432,3.432,0,1,1,3.432-3.432A3.432,3.432,0,0,1,140.964,144.4Zm3.568-6.2a.8.8,0,1,1,.8-.8A.8.8,0,0,1,144.532,138.2Zm0,0" transform="translate(-129.324 -129.328)"/><path class="a" d="M11.64,0a11.64,11.64,0,1,0,11.64,11.64A11.642,11.642,0,0,0,11.64,0Zm6.644,14.4a4.9,4.9,0,0,1-.311,1.623,3.418,3.418,0,0,1-1.955,1.955,4.907,4.907,0,0,1-1.622.311c-.713.033-.94.04-2.756.04s-2.043-.008-2.756-.04a4.907,4.907,0,0,1-1.622-.311,3.418,3.418,0,0,1-1.955-1.955A4.9,4.9,0,0,1,5,14.4c-.033-.713-.04-.941-.04-2.756S4.964,9.6,5,8.885a4.9,4.9,0,0,1,.31-1.623A3.42,3.42,0,0,1,7.262,5.307,4.909,4.909,0,0,1,8.885,5c.713-.033.94-.04,2.756-.04s2.043.008,2.756.04a4.91,4.91,0,0,1,1.623.31,3.419,3.419,0,0,1,1.955,1.955,4.9,4.9,0,0,1,.311,1.623c.033.713.04.94.04,2.756S18.317,13.683,18.284,14.4Zm0,0"/></svg>