<svg xmlns="http://www.w3.org/2000/svg" width="22.974" height="22.974" viewBox="0 0 22.974 22.974"><defs><style>.a{fill:#fff;}</style></defs><path class="a" d="M11.487,0A11.487,11.487,0,1,0,22.974,11.487,11.488,11.488,0,0,0,11.487,0ZM8.149,17.365h-2.8V8.948h2.8ZM6.75,7.8H6.732a1.458,1.458,0,1,1,.037-2.908A1.459,1.459,0,1,1,6.75,7.8Zm11.486,9.566h-2.8v-4.5c0-1.132-.405-1.9-1.417-1.9a1.531,1.531,0,0,0-1.435,1.023,1.916,1.916,0,0,0-.092.683v4.7H9.7s.037-7.627,0-8.417h2.8V10.14a2.777,2.777,0,0,1,2.521-1.389c1.841,0,3.221,1.2,3.221,3.788Zm0,0"/></svg>